<?xml version="1.0" encoding="UTF-8"?>
<svg width="317px" height="136px" viewBox="0 0 317 136" version="1.1" xmlns="http://www.w3.org/2000/svg" xmlns:xlink="http://www.w3.org/1999/xlink">
    <!-- Generator: Sketch 63.1 (92452) - https://sketch.com -->
    <title>Forbes_Logo-WhiteOnTrns@svg</title>
    <desc>Created with Sketch.</desc>
    <g id="Forbes_Logo-WhiteOnTrns" stroke="none" stroke-width="1" fill="none" fill-rule="evenodd">
        <g id="Forbes-100---132">
            <rect id="Background" x="0" y="0" width="317" height="136"></rect>
            <path d="M184.57971,55.264818 C180.782854,55.264818 177.735883,56.2772439 174.571836,57.7958086 C174.595402,48.9836843 174.712477,41.2989163 174.923514,38.4 L156.478081,41.8971478 L156.478081,43.5307912 L158.282698,43.7609487 C160.860917,44.1061849 161.845253,45.5786292 162.14995,48.9608465 C162.735779,55.4260172 162.642119,90.0764312 162.14995,95.6212686 C167.118614,96.7256389 172.485937,97.5540278 177.876524,97.5540278 C192.501383,97.5540278 201.314035,88.6729453 201.314035,74.6148027 C201.314035,63.3636321 194.165661,55.264818 184.57971,55.264818 Z M178.157806,94.7007871 C177.103073,94.7007871 175.767058,94.5398845 175.017174,94.4016714 C174.736043,90.5133152 174.548572,74.4765896 174.571836,60.4645675 C176.259227,59.9123082 177.40777,59.7743917 178.884426,59.7743917 C184.931388,59.7743917 188.353151,66.6307707 188.353151,75.3049785 C188.353151,86.3259916 184.157787,94.7007871 178.157806,94.7007871 Z M87.1498843,55.7019985 L84.2669688,56.484267 C81.7592975,48.2472397 77.7514044,43.5997495 70.2981825,43.5997495 L60.7359486,43.5997495 C60.2906104,48.8457678 60.1265543,57.5886372 60.1735354,66.6768912 L66.6188547,66.4698681 C70.907879,66.3318033 72.6890809,63.2027295 73.7203984,58.578077 L76.1344097,58.578077 L76.1344097,77.8356725 L73.7203984,77.8356725 C72.6890809,73.2110201 70.884464,70.1049324 66.6188547,69.9438815 L60.1969504,69.7368584 C60.2671954,76.6393579 60.4546665,82.5294315 60.7593636,86.0265793 C61.2047019,91.1575188 62.6109616,93.4122315 66.3140065,93.9413564 L69.5952792,94.2865926 L69.5952792,96.5874258 L38.4,96.5874258 L38.4,94.2865926 L40.9782184,93.9413564 C44.6814143,93.4120832 46.0876741,91.1573705 46.5328613,86.0265793 C47.2359156,77.582529 47.3531417,60.0042525 46.5328613,50.2028367 C46.087523,45.0718972 44.6812633,42.8171845 40.9782184,42.2880596 L38.4,41.9429717 L38.4,39.6421385 L86.8921682,39.6421385 L87.1498843,55.7019985 Z M102.665571,54.8046513 C116.446887,54.8046513 123.290412,63.9848496 123.290412,76.0641125 C123.290412,87.8672458 115.556059,97.5537312 101.774744,97.5537312 C87.9934287,97.5537312 81.1263372,88.3735329 81.1263372,76.29427 C81.1263372,64.4911367 88.8609923,54.8046513 102.665571,54.8046513 Z M101.938951,57.4277346 C95.8453099,57.4277346 94.134353,65.5265487 94.134353,76.1793396 C94.134353,86.5560008 96.8297975,94.9309445 102.4781,94.9309445 C108.571741,94.9309445 110.282698,86.8321304 110.282698,76.1793396 C110.282698,65.8025301 107.587556,57.4277346 101.938951,57.4277346 Z M204.68891,76.5703997 C204.665402,65.3653495 211.884171,54.8506235 226.08741,54.8506235 C237.642185,54.8506235 243.173262,63.2716877 243.220243,74.2695665 L217.438965,74.2695665 C217.157834,84.2550193 222.313969,91.5948477 232.157636,91.5948477 C236.49349,91.5948477 238.837256,90.5365979 241.462456,88.5807043 L242.681244,90.0073247 C239.821895,93.8956808 233.845329,97.6 225.923505,97.6 C213.478053,97.5768656 204.712383,88.9257922 204.68891,76.5703997 Z M217.532625,71.4166223 L230.470094,71.140641 C230.540339,65.5265487 229.626247,57.4966929 224.962281,57.4966929 C220.2749,57.4966929 217.649851,65.0893682 217.532625,71.4166223 Z M276.360931,67.4131874 L274.251617,67.9654467 C272.001511,60.809952 268.579748,57.7728225 263.587669,57.7728225 C260.259567,57.7728225 257.845404,60.2345583 257.845404,63.8009609 C257.845404,67.3443775 260.540849,69.2078818 268.345447,72.1759047 C275.540651,74.9139184 278.4,78.0659783 278.4,83.795001 C278.4,92.3539817 271.72038,97.5998517 260.751433,97.5998517 C255.478072,97.5998517 249.618581,96.4495093 246.196818,95.0919955 L245.821876,83.2657278 L247.93119,82.7136168 C250.954596,90.9964679 254.892244,94.0106113 260.071793,94.0106113 C264.478044,94.0106113 266.939036,90.9275097 266.939036,87.637385 C266.939036,84.4392046 265.087438,82.5295798 258.056139,80.0447096 C251.517009,77.7438765 246.782798,74.9369045 246.782798,67.7584236 C246.782798,60.7869659 253.06391,54.8277857 263.446726,54.8277857 C268.2749,54.8277857 272.845206,55.6561746 275.915593,57.0365262 L276.360931,67.4131874 Z M154.766974,67.0910856 C149.188916,63.4097526 143.165368,65.0204099 141.923165,67.0221274 C141.501242,73.6484972 141.595053,83.795001 142.063806,88.9028061 C142.368503,92.2850235 143.35284,93.7574677 145.931058,94.1027039 L149.259161,94.3328614 L149.259161,96.6336946 L123.665656,96.6336946 L123.665656,94.3328614 L125.470273,94.1027039 C128.048492,93.7574677 129.032828,92.2850235 129.337525,88.9028061 C129.829694,83.3576721 129.923354,71.8076824 129.337525,65.3425117 C129.032828,61.9602944 128.048492,60.4878501 125.470273,60.1426139 L123.665656,59.9124565 L123.665656,58.278813 L142.040693,54.7815169 L141.829807,64.2150071 C146.118831,54.5055356 154.603371,53.2401144 159.267337,55.9551421 L154.766974,67.0910856 Z" id="Shape" fill="#FFFFFF"></path>
        </g>
    </g>
</svg>